<svg width="177" height="20" viewBox="0 0 177 20" fill="none" xmlns="http://www.w3.org/2000/svg">
<path d="M175.738 17.5963C176.274 17.4649 176.603 16.9235 176.471 16.3871L174.33 7.64559C174.198 7.10917 173.657 6.78086 173.12 6.91229C172.584 7.04371 172.256 7.58511 172.387 8.12153L174.291 15.8917L166.521 17.7954C165.984 17.9269 165.656 18.4683 165.787 19.0047C165.919 19.5411 166.46 19.8694 166.997 19.738L175.738 17.5963ZM1 16.625C0.862848 17.6156 0.863355 17.6156 0.863959 17.6157C0.86429 17.6158 0.864992 17.6159 0.865655 17.616C0.86698 17.6161 0.868696 17.6164 0.870801 17.6167C0.875013 17.6172 0.880785 17.618 0.888119 17.619C0.902787 17.6209 0.923702 17.6236 0.950871 17.627C1.00521 17.6338 1.08457 17.6433 1.18901 17.655C1.3979 17.6783 1.70712 17.71 2.11718 17.7448C2.93732 17.8144 4.16081 17.8964 5.79179 17.9483C9.05381 18.052 13.9455 18.0355 20.4999 17.5592C33.609 16.6067 53.3672 13.8154 80.0397 6.47143L79.5087 4.54318C52.9554 11.8544 33.3265 14.6219 20.3549 15.5645C13.8691 16.0358 9.047 16.0508 5.85538 15.9493C4.25955 15.8985 3.07125 15.8186 2.28629 15.752C1.89381 15.7187 1.60216 15.6887 1.41082 15.6673C1.31514 15.6567 1.24454 15.6481 1.19896 15.6424C1.17616 15.6396 1.15962 15.6375 1.14932 15.6361C1.14417 15.6354 1.14058 15.6349 1.13856 15.6347C1.13754 15.6345 1.13692 15.6344 1.13668 15.6344C1.13657 15.6344 1.13668 15.6344 1.13663 15.6344C1.13684 15.6344 1.13715 15.6345 1 16.625ZM80.0397 6.47143C106.438 -0.797046 130.183 1.95789 147.339 6.53666C155.916 8.82579 162.84 11.5691 167.614 13.7375C170.001 14.8215 171.85 15.7615 173.099 16.4283C173.723 16.7617 174.197 17.0268 174.514 17.2075C174.672 17.2979 174.791 17.3671 174.869 17.4132C174.908 17.4362 174.937 17.4535 174.956 17.4647C174.965 17.4704 174.972 17.4745 174.976 17.477C174.979 17.4783 174.98 17.4792 174.981 17.4797C174.981 17.48 174.981 17.4801 174.982 17.4802C174.982 17.4802 174.981 17.4801 175.5 16.625C176.019 15.77 176.018 15.7697 176.017 15.7693C176.017 15.769 176.016 15.7685 176.015 15.768C176.013 15.7669 176.011 15.7655 176.008 15.7636C176.002 15.76 175.993 15.7548 175.982 15.7481C175.96 15.7346 175.927 15.7151 175.884 15.6899C175.798 15.6393 175.672 15.5656 175.506 15.4708C175.173 15.2811 174.683 15.0068 174.041 14.6641C172.758 13.9788 170.87 13.0197 168.441 11.9165C163.584 9.71046 156.556 6.92649 147.855 4.6043C130.454 -0.0395703 106.336 -2.8435 79.5087 4.54318L80.0397 6.47143Z" fill="#089FFD"/>
</svg>
