<svg width="86" height="70" viewBox="0 0 86 70" fill="none" xmlns="http://www.w3.org/2000/svg">
<path d="M65 3.49993L65.2715 2.53748L65.2525 2.53214L65.2334 2.52754L65 3.49993ZM84.9886 9.87242C85.4705 9.60257 85.6424 8.99318 85.3725 8.51131L80.9751 0.658761C80.7052 0.17689 80.0958 0.00501108 79.614 0.27486C79.1321 0.544708 78.9602 1.1541 79.2301 1.63597L83.1389 8.61601L76.1588 12.5248C75.677 12.7947 75.5051 13.4041 75.7749 13.886C76.0448 14.3678 76.6542 14.5397 77.1361 14.2699L84.9886 9.87242ZM1.97383 42.3537C5.55386 27.0147 12.5888 17.4257 20.4136 12.3205C28.2429 7.21234 36.9284 6.54347 43.9662 9.14139C50.9998 11.7377 56.405 17.5962 57.7401 25.6422C59.077 33.6992 56.3581 44.1354 46.7271 55.8654L48.2729 57.1345C58.1419 45.1145 61.173 34.1132 59.7131 25.3148C58.2513 16.5053 52.3127 10.0905 44.6588 7.26514C37.0091 4.44138 27.6633 5.20246 19.3208 10.6455C10.9737 16.0914 3.69614 26.1748 0.0261722 41.8991L1.97383 42.3537ZM46.7271 55.8654C41.8902 61.7565 37.8483 65.0503 34.6074 66.4501C32.9992 67.1447 31.6244 67.3575 30.4609 67.2255C29.3073 67.0945 28.2989 66.6179 27.4185 65.8266C25.6227 64.2124 24.3328 61.2559 23.7025 57.2837C23.0773 53.3441 23.1254 48.5536 23.8646 43.456C25.3451 33.2473 29.5689 21.9893 36.4434 14.0531C43.2816 6.15878 52.7004 1.57644 64.7666 4.47232L65.2334 2.52754C52.2996 -0.576568 42.1559 4.4036 34.9316 12.7436C27.7436 21.0418 23.4049 32.6901 21.8854 43.1689C21.1246 48.415 21.0633 53.4137 21.7272 57.5971C22.3859 61.748 23.7835 65.2484 26.0815 67.314C27.2479 68.3624 28.638 69.0314 30.2354 69.2127C31.8229 69.3929 33.5515 69.0847 35.4004 68.2861C39.0736 66.6996 43.3598 63.1184 48.2729 57.1345L46.7271 55.8654ZM64.7285 4.46238L84.2285 9.96237L84.7715 8.03747L65.2715 2.53748L64.7285 4.46238Z" fill="#F051FE"/>
</svg>
