<svg width="128" height="46" viewBox="0 0 128 46" fill="none" xmlns="http://www.w3.org/2000/svg">
<path d="M34.3132 22.4354C31.7557 21.2486 28.1653 20.6865 24.0708 20.5041C23.0453 20.4592 18.7615 20.4592 17.7212 20.5041L18.8057 12.6942H25.6914L24.5626 17.6635H39.4135C39.6508 17.0931 39.8232 16.4972 39.9275 15.8871C42.1014 3.34782 34.5222 0 24.4544 0C14.3866 0 5.65658 3.34782 3.46793 15.8871C2.92691 19.0101 4.25486 21.0912 6.80993 22.4354C9.26909 23.727 12.8619 24.3366 17.0228 24.524C18.0459 24.5715 22.3322 24.5715 23.3724 24.524L22.133 33.3058H15.2473L16.3195 28.6963H0.566113C0.497256 28.9461 0.438237 29.2159 0.389053 29.4883C-1.87092 42.5198 6.00578 46 16.4769 46C26.948 46 36.0297 42.5198 38.2897 29.4883C38.8799 26.0455 37.2913 23.8195 34.3132 22.4354Z" fill="#6FB282"/>
<path d="M75.6321 28.6963L96.2792 2.92808L96.5669 1.26917H64.4994L62.4706 17.6635H78.3494L57.7662 43.0719L57.4785 44.7308H89.546L91.5133 28.6963H75.6321Z" fill="#6FB282"/>
<path d="M100.941 28.6963L105.702 1.26917H100.715L93.1699 44.7308H126.032L127.999 28.6963H100.941Z" fill="#6FB282"/>
<path d="M57.2128 17.6635L60.8721 1.26917H45.6966L43.6677 17.6635H47.9442L46.031 28.6963H41.7521L38.1543 44.7308H53.3298L55.2971 28.6963H51.0182L52.9339 17.6635H57.2128Z" fill="#6FB282"/>
</svg>
