<svg width="1010" height="217" viewBox="0 0 1010 217" fill="none" xmlns="http://www.w3.org/2000/svg">
<path d="M70.5016 211.864C70.979 211.587 71.1409 210.974 70.8633 210.497L66.3383 202.717C66.0606 202.24 65.4485 202.078 64.9711 202.356C64.4937 202.633 64.3318 203.245 64.6094 203.723L68.6316 210.638L61.7163 214.66C61.2389 214.938 61.077 215.55 61.3547 216.028C61.6323 216.505 62.2444 216.667 62.7218 216.389L70.5016 211.864ZM858.999 11.9998C859.328 12.944 859.328 12.9439 859.329 12.9437C859.33 12.9434 859.331 12.943 859.332 12.9424C859.336 12.9413 859.341 12.9394 859.348 12.937C859.362 12.932 859.384 12.9246 859.413 12.9146C859.471 12.8946 859.559 12.8647 859.676 12.8255C859.908 12.7472 860.255 12.6317 860.71 12.4843C861.619 12.1897 862.959 11.7676 864.673 11.2602C868.1 10.2454 873.025 8.88963 879 7.52924C890.957 4.80716 907.097 2.07273 923.873 2.00225C940.659 1.93172 958.001 4.52893 972.421 12.399C986.802 20.2477 998.343 33.3736 1003.53 54.5264L1005.47 54.0502C1000.15 32.3473 988.25 18.7592 973.379 10.6434C958.548 2.54895 940.828 -0.0690057 923.865 0.00226426C906.892 0.0735758 890.597 2.83791 878.556 5.57914C872.533 6.95041 867.567 8.31748 864.105 9.3425C862.374 9.85505 861.018 10.2822 860.094 10.5817C859.631 10.7315 859.277 10.8494 859.037 10.9301C858.917 10.9705 858.826 11.0016 858.765 11.0227C858.734 11.0333 858.71 11.0413 858.694 11.0468C858.686 11.0496 858.68 11.0517 858.676 11.0532C858.674 11.0539 858.672 11.0545 858.671 11.0549C858.67 11.0553 858.669 11.0556 858.999 11.9998ZM1003.53 54.5264C1008.76 75.8513 1010.28 99.1056 1002.11 120.53C993.951 141.919 976.07 161.634 942.18 175.803C908.262 189.984 858.335 198.594 786.192 197.721C714.059 196.848 619.777 186.497 497.188 162.806L496.809 164.77C619.469 188.474 713.876 198.846 786.168 199.721C858.449 200.595 908.681 191.977 942.952 177.648C977.252 163.308 995.591 143.232 1003.98 121.243C1012.35 99.2906 1010.75 75.581 1005.47 54.0502L1003.53 54.5264ZM497.188 162.806C374.528 139.103 276.79 127.634 201.597 124.412C126.421 121.19 73.7192 126.206 41.162 135.512C24.8973 140.161 13.55 145.911 6.96034 152.335C3.6555 155.557 1.51831 158.977 0.589717 162.538C-0.341541 166.11 -0.0381927 169.752 1.42339 173.371C4.32686 180.56 11.7884 187.641 23.2303 194.18C34.7033 200.737 50.315 206.828 69.7431 211.967L70.2546 210.033C50.9327 204.922 35.4976 198.888 24.2227 192.444C12.9166 185.982 5.92899 179.186 3.27786 172.622C1.96215 169.364 1.71183 166.161 2.52501 163.043C3.34085 159.914 5.24618 156.799 8.35642 153.767C14.5969 147.684 25.57 142.049 41.7116 137.435C73.967 128.215 126.421 123.191 201.511 126.41C276.583 129.627 374.22 141.08 496.809 164.77L497.188 162.806Z" fill="#FBA500"/>
</svg>
