<svg width="73" height="12" viewBox="0 0 73 12" fill="none" xmlns="http://www.w3.org/2000/svg">
<path d="M72.4966 2.08199C72.5419 1.53156 72.1324 1.04865 71.582 1.00337L62.6123 0.265474C62.0619 0.220193 61.5789 0.629694 61.5337 1.18012C61.4884 1.73054 61.8979 2.21346 62.4483 2.25874L70.4214 2.91465L69.7655 10.8877C69.7202 11.4381 70.1297 11.9211 70.6801 11.9663C71.2305 12.0116 71.7135 11.6021 71.7587 11.0517L72.4966 2.08199ZM1 5.70612C1.50714 6.56799 1.50668 6.56826 1.50626 6.5685C1.50619 6.56854 1.50582 6.56876 1.50567 6.56884C1.50538 6.56902 1.50527 6.56908 1.50536 6.56903C1.50553 6.56893 1.50646 6.56839 1.50816 6.56741C1.51155 6.56546 1.51799 6.56177 1.52747 6.55644C1.54642 6.54577 1.57752 6.52851 1.62067 6.50533C1.70698 6.45897 1.84149 6.38894 2.02349 6.30065C2.38749 6.12406 2.94133 5.87446 3.6793 5.59495C5.15512 5.03598 7.36744 4.35738 10.2712 3.9039C16.0731 2.99784 24.6617 2.9862 35.6842 6.65495L36.3158 4.75731C24.9834 0.985402 16.072 0.973763 9.96264 1.92786C6.91079 2.40446 4.56464 3.12098 2.9709 3.72461C2.1741 4.0264 1.56538 4.29997 1.15053 4.50122C0.943098 4.60185 0.784104 4.68442 0.674264 4.74342C0.619344 4.77292 0.576707 4.79653 0.546446 4.81357C0.531314 4.82208 0.519276 4.82896 0.510342 4.8341C0.505875 4.83667 0.502184 4.83881 0.49927 4.84051C0.497814 4.84135 0.496551 4.84209 0.495483 4.84272C0.494949 4.84303 0.494294 4.84341 0.494027 4.84357C0.493421 4.84393 0.492863 4.84425 1 5.70612ZM35.6842 6.65495C47.0744 10.4461 56.1626 9.51187 62.4251 7.59972C65.5507 6.64537 67.9641 5.45021 69.6031 4.48775C70.4228 4.00642 71.0496 3.58286 71.4759 3.27594C71.689 3.12245 71.8521 2.99806 71.9642 2.9101C72.0203 2.86612 72.0636 2.83123 72.094 2.80636C72.1093 2.79393 72.1213 2.784 72.1301 2.77668C72.1345 2.77302 72.1381 2.77002 72.1408 2.76769C72.1422 2.76652 72.1434 2.76552 72.1444 2.76469C72.1449 2.76427 72.1455 2.76377 72.1457 2.76357C72.1463 2.76311 72.1468 2.7627 71.5 2C70.8532 1.2373 70.8536 1.23697 70.854 1.23669C70.854 1.23665 70.8543 1.23641 70.8544 1.23633C70.8546 1.23618 70.8546 1.23619 70.8543 1.23637C70.8539 1.23673 70.8527 1.23775 70.8507 1.23942C70.8467 1.24276 70.8395 1.24871 70.8292 1.25714C70.8085 1.27399 70.7753 1.30079 70.7296 1.33663C70.6383 1.40832 70.4971 1.51615 70.3072 1.65293C69.9272 1.92653 69.3524 2.31568 68.5904 2.7631C67.0662 3.65814 64.7961 4.78464 61.841 5.6869C55.9423 7.48798 47.2804 8.40681 36.3158 4.75731L35.6842 6.65495Z" fill="#BDC000"/>
</svg>
